<svg id="Layer_1" data-name="Layer 1" xmlns="http://www.w3.org/2000/svg" viewBox="0 0 469.58 128.03"><defs><style>.cls-1{fill:#231f20;}.cls-2{fill:#134a9b;}</style></defs><path class="cls-1" d="M311.11,334.72l42.31,57.55H208.71l78.7-113.12s21.44-31.87,48.24,0l56.7,80.68h99s6.67,21.25,22.85,27.08c0,0-6.85,6.1-43.44,5.36l-100.42.13-59-83.06-33.85,50.21,15.52.28,18.05-25.11Z" transform="translate(-208.71 -264.99)"/><path class="cls-2" d="M494.62,302.46s5.5-19.46,27.5-32.58H430.31s-39.78-2.54-49.09,23.7S388,332.93,388,332.93s6.35,9.73,38.51,11.42h77.43s6.88,40.4,55.85,48.66H662.6V316.85h-80L560.2,343.93l63.9.42-.43,16.93-56.27-.16s-24.43-.64-27.51-22.27-31.73-19-31.73-19l-85.05-.42s-8.18-1-7.33-10S428.61,302,428.61,302Z" transform="translate(-208.71 -264.99)"/><path class="cls-1" d="M678.29,270.4l-24.54,33.43H582.24s-17.77.42-25.39,16.92c0,0-15.23-14-36.39-13.54,0,0,6.58-34.42,52.47-36.81Z" transform="translate(-208.71 -264.99)"/></svg>